{
    "asset" : {
        "generator" : "Khronos glTF Blender I/O v1.3.48",
        "version" : "2.0"
    },
    "scene" : 0,
    "scenes" : [
        {
            "name" : "Scene",
            "nodes" : [
                5,
                6,
                7
            ]
        }
    ],
    "nodes" : [
        {
            "mesh" : 0,
            "name" : "Mesh_0",
            "translation" : [
                0,
                0,
                0.47415784001350403
            ]
        },
        {
            "mesh" : 1,
            "name" : "Mesh_0.001",
            "translation" : [
                0,
                0,
                1.4217114448547363
            ]
        },
        {
            "children" : [
                0,
                1
            ],
            "name" : "Node_3"
        },
        {
            "children" : [
                2
            ],
            "name" : "a366978fdd564d359a25ec4aab2a25e0.obj.cleaner.gles"
        },
        {
            "children" : [
                3
            ],
            "name" : "RootNode (model correction matrix)"
        },
        {
            "children" : [
                4
            ],
            "name" : "RootNode (gltf orientation matrix)",
            "rotation" : [
                -0.7071068286895752,
                0,
                0,
                0.7071068286895752
            ],
            "translation" : [
                0,
                0.6060652732849121,
                0
            ]
        },
        {
            "mesh" : 2,
            "name" : "Cube",
            "scale" : [
                1,
                0.30609971284866333,
                1
            ],
            "translation" : [
                0,
                0.6060652732849121,
                0
            ]
        },
        {
            "mesh" : 3,
            "name" : "support",
            "scale" : [
                -0.04335160553455353,
                1.226881742477417,
                -0.04335160553455353
            ],
            "translation" : [
                0.4917300045490265,
                1.2424081563949585,
                -0.49115994572639465
            ]
        }
    ],
    "materials" : [
        {
            "doubleSided" : true,
            "emissiveFactor" : [
                0,
                0,
                0
            ],
            "name" : "crate_texture",
            "pbrMetallicRoughness" : {
                "baseColorTexture" : {
                    "index" : 0,
                    "texCoord" : 0
                },
                "metallicFactor" : 0,
                "roughnessFactor" : 0.9334368705749512
            }
        },
        {
            "doubleSided" : true,
            "emissiveFactor" : [
                0,
                0,
                0
            ],
            "name" : "base",
            "pbrMetallicRoughness" : {
                "baseColorFactor" : [
                    0.10809100419282913,
                    0.46941664814949036,
                    0.933099627494812,
                    1
                ],
                "metallicFactor" : 0.699999988079071,
                "roughnessFactor" : 0.4000000059604645
            }
        },
        {
            "doubleSided" : true,
            "emissiveFactor" : [
                0,
                0,
                0
            ],
            "name" : "support",
            "pbrMetallicRoughness" : {
                "baseColorFactor" : [
                    0.10809100419282913,
                    0.46941664814949036,
                    0.933099627494812,
                    1
                ],
                "metallicFactor" : 0.699999988079071,
                "roughnessFactor" : 0.4000000059604645
            }
        }
    ],
    "meshes" : [
        {
            "name" : "Mesh_0",
            "primitives" : [
                {
                    "attributes" : {
                        "POSITION" : 0,
                        "NORMAL" : 1,
                        "TEXCOORD_0" : 2
                    },
                    "indices" : 3,
                    "material" : 0
                }
            ]
        },
        {
            "name" : "Mesh_0.001",
            "primitives" : [
                {
                    "attributes" : {
                        "POSITION" : 4,
                        "NORMAL" : 5,
                        "TEXCOORD_0" : 6
                    },
                    "indices" : 3,
                    "material" : 0
                }
            ]
        },
        {
            "name" : "Cube.001",
            "primitives" : [
                {
                    "attributes" : {
                        "POSITION" : 7,
                        "NORMAL" : 8,
                        "TEXCOORD_0" : 9
                    },
                    "indices" : 10,
                    "material" : 1
                }
            ]
        },
        {
            "name" : "Cube.002",
            "primitives" : [
                {
                    "attributes" : {
                        "POSITION" : 11,
                        "NORMAL" : 12,
                        "TEXCOORD_0" : 13
                    },
                    "indices" : 14,
                    "material" : 2
                }
            ]
        }
    ],
    "textures" : [
        {
            "source" : 0
        }
    ],
    "images" : [
        {
            "mimeType" : "image/jpeg",
            "name" : "crate_texture_baseColor",
            "uri" : "crate_texture_baseColor.jpg"
        }
    ],
    "accessors" : [
        {
            "bufferView" : 0,
            "componentType" : 5126,
            "count" : 24,
            "max" : [
                0.4559362828731537,
                0.4559374749660492,
                0.4559374749660492
            ],
            "min" : [
                -0.4559362232685089,
                -0.4559374749660492,
                -0.4559374749660492
            ],
            "type" : "VEC3"
        },
        {
            "bufferView" : 1,
            "componentType" : 5126,
            "count" : 24,
            "type" : "VEC3"
        },
        {
            "bufferView" : 2,
            "componentType" : 5126,
            "count" : 24,
            "type" : "VEC2"
        },
        {
            "bufferView" : 3,
            "componentType" : 5123,
            "count" : 36,
            "type" : "SCALAR"
        },
        {
            "bufferView" : 4,
            "componentType" : 5126,
            "count" : 24,
            "max" : [
                0.4559362828731537,
                0.4559374749660492,
                0.4559374749660492
            ],
            "min" : [
                -0.4559362232685089,
                -0.4559374749660492,
                -0.4559374749660492
            ],
            "type" : "VEC3"
        },
        {
            "bufferView" : 5,
            "componentType" : 5126,
            "count" : 24,
            "type" : "VEC3"
        },
        {
            "bufferView" : 6,
            "componentType" : 5126,
            "count" : 24,
            "type" : "VEC2"
        },
        {
            "bufferView" : 7,
            "componentType" : 5126,
            "count" : 48,
            "max" : [
                0.5176721215248108,
                3.1175878047943115,
                0.5176721215248108
            ],
            "min" : [
                -0.5176721215248108,
                -0.028450150042772293,
                -0.5176721215248108
            ],
            "type" : "VEC3"
        },
        {
            "bufferView" : 8,
            "componentType" : 5126,
            "count" : 48,
            "type" : "VEC3"
        },
        {
            "bufferView" : 9,
            "componentType" : 5126,
            "count" : 48,
            "type" : "VEC2"
        },
        {
            "bufferView" : 10,
            "componentType" : 5123,
            "count" : 72,
            "type" : "SCALAR"
        },
        {
            "bufferView" : 11,
            "componentType" : 5126,
            "count" : 144,
            "max" : [
                23.685665130615234,
                1,
                1.0000001192092896
            ],
            "min" : [
                -1.000001072883606,
                -1,
                -23.659366607666016
            ],
            "type" : "VEC3"
        },
        {
            "bufferView" : 12,
            "componentType" : 5126,
            "count" : 144,
            "type" : "VEC3"
        },
        {
            "bufferView" : 13,
            "componentType" : 5126,
            "count" : 144,
            "type" : "VEC2"
        },
        {
            "bufferView" : 14,
            "componentType" : 5123,
            "count" : 240,
            "type" : "SCALAR"
        }
    ],
    "bufferViews" : [
        {
            "buffer" : 0,
            "byteLength" : 288,
            "byteOffset" : 0
        },
        {
            "buffer" : 0,
            "byteLength" : 288,
            "byteOffset" : 288
        },
        {
            "buffer" : 0,
            "byteLength" : 192,
            "byteOffset" : 576
        },
        {
            "buffer" : 0,
            "byteLength" : 72,
            "byteOffset" : 768
        },
        {
            "buffer" : 0,
            "byteLength" : 288,
            "byteOffset" : 840
        },
        {
            "buffer" : 0,
            "byteLength" : 288,
            "byteOffset" : 1128
        },
        {
            "buffer" : 0,
            "byteLength" : 192,
            "byteOffset" : 1416
        },
        {
            "buffer" : 0,
            "byteLength" : 576,
            "byteOffset" : 1608
        },
        {
            "buffer" : 0,
            "byteLength" : 576,
            "byteOffset" : 2184
        },
        {
            "buffer" : 0,
            "byteLength" : 384,
            "byteOffset" : 2760
        },
        {
            "buffer" : 0,
            "byteLength" : 144,
            "byteOffset" : 3144
        },
        {
            "buffer" : 0,
            "byteLength" : 1728,
            "byteOffset" : 3288
        },
        {
            "buffer" : 0,
            "byteLength" : 1728,
            "byteOffset" : 5016
        },
        {
            "buffer" : 0,
            "byteLength" : 1152,
            "byteOffset" : 6744
        },
        {
            "buffer" : 0,
            "byteLength" : 480,
            "byteOffset" : 7896
        }
    ],
    "buffers" : [
        {
            "byteLength" : 8376,
            "uri" : "shelf2.bin"
        }
    ]
}
